<mxfile host="app.diagrams.net" agent="Mozilla/5.0 (Macintosh; Intel Mac OS X 10_15_7) AppleWebKit/537.36 (KHTML, like Gecko) Chrome/131.0.0.0 Safari/537.36 Edg/131.0.0.0" version="24.9.3">
  <diagram name="Page-1" id="yyHbFrP4hnz60t05eZxh">
    <mxGraphModel dx="596" dy="378" grid="1" gridSize="10" guides="1" tooltips="1" connect="1" arrows="1" fold="1" page="1" pageScale="1" pageWidth="850" pageHeight="1100" math="0" shadow="0">
      <root>
        <mxCell id="0" />
        <mxCell id="1" parent="0" />
        <mxCell id="SNJbVYZoyfHWFcvHvl9G-5" style="rounded=0;orthogonalLoop=1;jettySize=auto;html=1;exitX=0.5;exitY=0;exitDx=0;exitDy=0;entryX=0.5;entryY=1;entryDx=0;entryDy=0;endArrow=none;endFill=0;" edge="1" parent="1" source="SNJbVYZoyfHWFcvHvl9G-1" target="SNJbVYZoyfHWFcvHvl9G-4">
          <mxGeometry relative="1" as="geometry" />
        </mxCell>
        <mxCell id="SNJbVYZoyfHWFcvHvl9G-8" style="edgeStyle=none;shape=connector;rounded=0;orthogonalLoop=1;jettySize=auto;html=1;exitX=0.75;exitY=0;exitDx=0;exitDy=0;entryX=0.5;entryY=1;entryDx=0;entryDy=0;strokeColor=default;align=center;verticalAlign=middle;fontFamily=Helvetica;fontSize=11;fontColor=default;labelBackgroundColor=default;endArrow=none;endFill=0;" edge="1" parent="1" source="SNJbVYZoyfHWFcvHvl9G-1" target="SNJbVYZoyfHWFcvHvl9G-6">
          <mxGeometry relative="1" as="geometry" />
        </mxCell>
        <mxCell id="SNJbVYZoyfHWFcvHvl9G-10" style="edgeStyle=none;shape=connector;rounded=0;orthogonalLoop=1;jettySize=auto;html=1;exitX=1;exitY=0;exitDx=0;exitDy=0;entryX=0.5;entryY=1;entryDx=0;entryDy=0;strokeColor=default;align=center;verticalAlign=middle;fontFamily=Helvetica;fontSize=11;fontColor=default;labelBackgroundColor=default;endArrow=none;endFill=0;" edge="1" parent="1" source="SNJbVYZoyfHWFcvHvl9G-1" target="SNJbVYZoyfHWFcvHvl9G-9">
          <mxGeometry relative="1" as="geometry" />
        </mxCell>
        <mxCell id="SNJbVYZoyfHWFcvHvl9G-16" style="edgeStyle=none;shape=connector;rounded=0;orthogonalLoop=1;jettySize=auto;html=1;exitX=1;exitY=0.5;exitDx=0;exitDy=0;entryX=0;entryY=0.5;entryDx=0;entryDy=0;strokeColor=default;align=center;verticalAlign=middle;fontFamily=Helvetica;fontSize=11;fontColor=default;labelBackgroundColor=default;endArrow=none;endFill=0;startArrow=ERmandOne;startFill=0;" edge="1" parent="1" source="SNJbVYZoyfHWFcvHvl9G-1" target="SNJbVYZoyfHWFcvHvl9G-15">
          <mxGeometry relative="1" as="geometry" />
        </mxCell>
        <mxCell id="SNJbVYZoyfHWFcvHvl9G-1" value="Customer" style="whiteSpace=wrap;html=1;align=center;" vertex="1" parent="1">
          <mxGeometry x="80" y="90" width="100" height="40" as="geometry" />
        </mxCell>
        <mxCell id="SNJbVYZoyfHWFcvHvl9G-12" style="edgeStyle=none;shape=connector;rounded=0;orthogonalLoop=1;jettySize=auto;html=1;exitX=0.25;exitY=0;exitDx=0;exitDy=0;entryX=0.5;entryY=1;entryDx=0;entryDy=0;strokeColor=default;align=center;verticalAlign=middle;fontFamily=Helvetica;fontSize=11;fontColor=default;labelBackgroundColor=default;endArrow=none;endFill=0;" edge="1" parent="1" source="SNJbVYZoyfHWFcvHvl9G-2" target="SNJbVYZoyfHWFcvHvl9G-11">
          <mxGeometry relative="1" as="geometry" />
        </mxCell>
        <mxCell id="SNJbVYZoyfHWFcvHvl9G-2" value="Account" style="whiteSpace=wrap;html=1;align=center;" vertex="1" parent="1">
          <mxGeometry x="430" y="90" width="100" height="40" as="geometry" />
        </mxCell>
        <mxCell id="SNJbVYZoyfHWFcvHvl9G-3" value="Transaction" style="whiteSpace=wrap;html=1;align=center;" vertex="1" parent="1">
          <mxGeometry x="80" y="240" width="100" height="40" as="geometry" />
        </mxCell>
        <mxCell id="SNJbVYZoyfHWFcvHvl9G-4" value="ID" style="ellipse;whiteSpace=wrap;html=1;align=center;fontStyle=4" vertex="1" parent="1">
          <mxGeometry x="60" y="40" width="60" height="20" as="geometry" />
        </mxCell>
        <mxCell id="SNJbVYZoyfHWFcvHvl9G-6" value="name" style="ellipse;whiteSpace=wrap;html=1;align=center;" vertex="1" parent="1">
          <mxGeometry x="130" y="40" width="70" height="20" as="geometry" />
        </mxCell>
        <mxCell id="SNJbVYZoyfHWFcvHvl9G-9" value="phone" style="ellipse;whiteSpace=wrap;html=1;align=center;" vertex="1" parent="1">
          <mxGeometry x="200" y="60" width="70" height="20" as="geometry" />
        </mxCell>
        <mxCell id="SNJbVYZoyfHWFcvHvl9G-11" value="number" style="ellipse;whiteSpace=wrap;html=1;align=center;fontStyle=4" vertex="1" parent="1">
          <mxGeometry x="400" y="60" width="70" height="20" as="geometry" />
        </mxCell>
        <mxCell id="SNJbVYZoyfHWFcvHvl9G-13" value="balance" style="ellipse;whiteSpace=wrap;html=1;align=center;" vertex="1" parent="1">
          <mxGeometry x="490" y="60" width="70" height="20" as="geometry" />
        </mxCell>
        <mxCell id="SNJbVYZoyfHWFcvHvl9G-14" style="edgeStyle=none;shape=connector;rounded=0;orthogonalLoop=1;jettySize=auto;html=1;exitX=0.5;exitY=0;exitDx=0;exitDy=0;entryX=0.335;entryY=1.048;entryDx=0;entryDy=0;entryPerimeter=0;strokeColor=default;align=center;verticalAlign=middle;fontFamily=Helvetica;fontSize=11;fontColor=default;labelBackgroundColor=default;endArrow=none;endFill=0;" edge="1" parent="1" source="SNJbVYZoyfHWFcvHvl9G-2" target="SNJbVYZoyfHWFcvHvl9G-13">
          <mxGeometry relative="1" as="geometry" />
        </mxCell>
        <mxCell id="SNJbVYZoyfHWFcvHvl9G-17" style="edgeStyle=none;shape=connector;rounded=0;orthogonalLoop=1;jettySize=auto;html=1;exitX=1;exitY=0.5;exitDx=0;exitDy=0;strokeColor=default;align=center;verticalAlign=middle;fontFamily=Helvetica;fontSize=11;fontColor=default;labelBackgroundColor=default;endArrow=ERzeroToMany;endFill=0;" edge="1" parent="1" source="SNJbVYZoyfHWFcvHvl9G-15" target="SNJbVYZoyfHWFcvHvl9G-2">
          <mxGeometry relative="1" as="geometry" />
        </mxCell>
        <mxCell id="SNJbVYZoyfHWFcvHvl9G-15" value="owns" style="shape=rhombus;perimeter=rhombusPerimeter;whiteSpace=wrap;html=1;align=center;fontFamily=Helvetica;fontSize=11;fontColor=default;labelBackgroundColor=default;" vertex="1" parent="1">
          <mxGeometry x="260" y="90" width="80" height="40" as="geometry" />
        </mxCell>
      </root>
    </mxGraphModel>
  </diagram>
</mxfile>
